<?xml version="1.0" encoding="UTF-8" standalone="no"?>
<!-- Created with Inkscape (http://www.inkscape.org/) -->

<svg
   xmlns:dc="http://purl.org/dc/elements/1.1/"
   xmlns:cc="http://creativecommons.org/ns#"
   xmlns:rdf="http://www.w3.org/1999/02/22-rdf-syntax-ns#"
   xmlns:svg="http://www.w3.org/2000/svg"
   xmlns="http://www.w3.org/2000/svg"
   xmlns:sodipodi="http://sodipodi.sourceforge.net/DTD/sodipodi-0.dtd"
   xmlns:inkscape="http://www.inkscape.org/namespaces/inkscape"
   width="200mm"
   height="100mm"
   viewBox="0 0 708.66141 354.33071"
   id="svg4625"
   version="1.1"
   inkscape:version="0.91 r"
   sodipodi:docname="cca logo b.svg">
  <defs
     id="defs4627" />
  <sodipodi:namedview
     id="base"
     pagecolor="#ffffff"
     bordercolor="#666666"
     borderopacity="1.0"
     inkscape:pageopacity="0.0"
     inkscape:pageshadow="2"
     inkscape:zoom="0.70710678"
     inkscape:cx="334.80115"
     inkscape:cy="262.7755"
     inkscape:document-units="px"
     inkscape:current-layer="g5235"
     showgrid="false"
     height="100mm"
     inkscape:window-width="1600"
     inkscape:window-height="848"
     inkscape:window-x="0"
     inkscape:window-y="0"
     inkscape:window-maximized="1"
     showguides="true"
     inkscape:guide-bbox="true">
    <sodipodi:guide
       position="71.428569,197.14285"
       orientation="1,0"
       id="guide5285" />
    <sodipodi:guide
       position="636.39608,280.8224"
       orientation="1,0"
       id="guide5053" />
  </sodipodi:namedview>
  <metadata
     id="metadata4630">
    <rdf:RDF>
      <cc:Work
         rdf:about="">
        <dc:format>image/svg+xml</dc:format>
        <dc:type
           rdf:resource="http://purl.org/dc/dcmitype/StillImage" />
        <dc:title></dc:title>
      </cc:Work>
    </rdf:RDF>
  </metadata>
  <g
     inkscape:label="Capa 1"
     inkscape:groupmode="layer"
     id="layer1"
     transform="translate(0,-698.03149)">
    <g
       id="g5235"
       transform="translate(-4.1142388,-7.1653627)">
      <g
         id="g5055"
         transform="translate(-6.9024804e-6,-5.0300498)">
        <g
           transform="translate(0,-12)"
           id="g5048">
          <path
             inkscape:export-ydpi="150"
             inkscape:export-xdpi="150"
             sodipodi:nodetypes="ssccccssssssccccccssssscccssscccc"
             inkscape:connector-curvature="0"
             id="text4155-5-1"
             d="m 409.60236,754.54 c -3.64866,0 -6.76755,0.33703 -9.60554,1.38261 -2.838,1.04556 -5.63376,3.17616 -6.8178,6.28429 -0.0217,0.0572 -0.0427,0.11491 -0.0626,0.17284 l -43.96507,128.4939 c -0.0298,0.0872 -0.0574,0.17453 -0.0827,0.26289 -0.57011,1.99542 -1.00688,2.74884 -1.00688,5.07706 0,1.97721 0.87631,4.15219 2.1941,5.57796 1.31778,1.42579 2.85848,2.22448 4.4133,2.78527 3.10964,1.12146 6.58357,1.41769 10.9706,1.41769 l 7.9925,0 c 3.08119,0 5.85255,-0.35843 8.43086,-1.53542 2.57828,-1.177 4.93025,-3.5197 5.871,-6.34189 l 0.008,-0.0257 6.77773,-20.67383 39.35642,0 6.77773,20.67383 0.008,0.0257 c 1.06239,3.18717 3.8828,5.42509 6.7151,6.48718 2.83229,1.0621 5.93684,1.39013 9.58551,1.39013 l 8.79401,0 c 3.72554,0 6.78631,-0.28714 9.66314,-1.55299 2.87686,-1.26574 5.71325,-4.72234 5.71325,-8.22793 0,-1.73907 -0.3133,-3.43378 -0.82656,-5.14464 -0.0197,-0.0655 -0.0405,-0.13062 -0.0626,-0.19531 l -43.951,-128.45383 c -1.07456,-3.22374 -3.93808,-5.44457 -6.79525,-6.4972 -2.85717,-1.05265 -5.99565,-1.38261 -9.70323,-1.38261 z m 4.96684,62.50239 7.43395,23.22614 -15.13341,0 z"
             style="color:#000000;font-style:normal;font-variant:normal;font-weight:bold;font-stretch:normal;font-size:155.82629395px;line-height:125%;font-family:Asap;-inkscape-font-specification:'Asap, Bold';text-indent:0;text-align:start;text-decoration:none;text-decoration-line:none;text-decoration-style:solid;text-decoration-color:#000000;letter-spacing:0px;word-spacing:0px;text-transform:none;direction:ltr;block-progression:tb;writing-mode:lr-tb;baseline-shift:baseline;text-anchor:start;white-space:normal;clip-rule:nonzero;display:inline;overflow:visible;visibility:visible;opacity:1;isolation:auto;mix-blend-mode:normal;color-interpolation:sRGB;color-interpolation-filters:linearRGB;solid-color:#000000;solid-opacity:1;fill:#18265a;fill-opacity:1;fill-rule:nonzero;stroke:none;stroke-width:8.39999962;stroke-linecap:round;stroke-linejoin:round;stroke-miterlimit:4;stroke-dasharray:none;stroke-dashoffset:0;stroke-opacity:1;color-rendering:auto;image-rendering:auto;shape-rendering:auto;text-rendering:auto;enable-background:accumulate" />
          <path
             inkscape:export-ydpi="150"
             inkscape:export-xdpi="150"
             sodipodi:nodetypes="cssccsccccsccsccsssscsssscscccscccc"
             inkscape:connector-curvature="0"
             id="text4155-5-7-87"
             d="m 148.08687,753.34153 c -23.20488,10e-6 -41.63643,6.32068 -53.986402,19.48409 -12.349956,13.16345 -18.144064,32.48643 -18.144064,57.04215 0,25.42243 5.466171,45.06322 17.387649,58.17674 0.01451,0.0161 0.02836,0.0321 0.04261,0.0474 12.056467,12.94951 30.389837,19.10096 53.700877,19.10096 6.60523,0 13.62563,-0.63043 21.06958,-1.87103 0.0318,0 0.0635,-0.0133 0.0952,-0.0178 7.59461,-1.40642 13.9351,-3.45764 19.07582,-6.41461 l 0.003,0 c 5.53417,-3.16332 9.70573,-7.98645 9.70573,-13.86604 0,-2.87363 -0.88683,-5.13656 -2.15405,-8.10265 -1.24097,-3.38965 -2.98087,-6.48693 -5.19475,-9.19987 -2.33893,-3.03531 -5.81754,-5.47026 -9.82846,-5.47026 -3.09517,0 -4.37735,0.9395 -6.61242,2.07642 -0.003,10e-4 -0.007,7.8e-4 -0.009,0.003 -3.86816,1.74634 -7.85793,3.18392 -11.98,4.30808 -3.79674,1.03554 -8.5332,1.60802 -14.16911,1.60802 -10.19356,0 -16.65894,-3.02251 -21.32005,-9.23735 -4.6611,-6.21482 -7.46401,-16.42407 -7.46401,-30.93812 0,-14.36761 2.75505,-24.44042 7.2962,-30.5123 4.64691,-6.03826 11.32023,-9.06453 21.8886,-9.06451 5.2961,0 9.70723,0.45118 13.16222,1.25736 3.77006,0.87967 6.88615,1.87061 9.29498,2.90296 1.44151,0.61777 2.58912,1.08862 3.5266,1.44019 0.46877,0.17577 0.87837,0.32161 1.31749,0.45336 0.43911,0.13182 0.62744,0.34063 2.0739,0.34063 4.14077,0 6.96099,-2.41936 9.4302,-5.2173 2.44361,-2.75119 4.50921,-5.81489 6.1766,-9.14967 0.0145,-0.0282 0.0285,-0.0567 0.0426,-0.0852 1.64896,-3.44784 2.72511,-6.44248 2.72511,-9.71825 0,-5.00134 -3.65056,-8.60747 -7.86728,-11.04575 -4.66496,-2.7326 -10.56383,-4.6192 -17.83599,-6.02131 -7.25229,-1.53071 -14.40801,-2.30683 -21.44779,-2.30683 z"
             style="color:#000000;font-style:normal;font-variant:normal;font-weight:bold;font-stretch:normal;font-size:155.82629395px;line-height:125%;font-family:Asap;-inkscape-font-specification:'Asap, Bold';text-indent:0;text-align:start;text-decoration:none;text-decoration-line:none;text-decoration-style:solid;text-decoration-color:#000000;letter-spacing:0px;word-spacing:0px;text-transform:none;direction:ltr;block-progression:tb;writing-mode:lr-tb;baseline-shift:baseline;text-anchor:start;white-space:normal;clip-rule:nonzero;display:inline;overflow:visible;visibility:visible;opacity:1;isolation:auto;mix-blend-mode:normal;color-interpolation:sRGB;color-interpolation-filters:linearRGB;solid-color:#000000;solid-opacity:1;fill:#18265a;fill-opacity:1;fill-rule:nonzero;stroke:none;stroke-width:8.39999962;stroke-linecap:round;stroke-linejoin:round;stroke-miterlimit:4;stroke-dasharray:none;stroke-dashoffset:0;stroke-opacity:1;color-rendering:auto;image-rendering:auto;shape-rendering:auto;text-rendering:auto;enable-background:accumulate" />
          <path
             inkscape:export-ydpi="150"
             inkscape:export-xdpi="150"
             sodipodi:nodetypes="cssccsccccsccsccsssscsssscscccscccc"
             inkscape:connector-curvature="0"
             id="text4155-5-7-3-4"
             d="m 284.13955,753.34153 c -23.20489,10e-6 -41.63644,6.32068 -53.98639,19.48409 -12.34997,13.16345 -18.14408,32.48643 -18.14408,57.04215 0,25.42243 5.46619,45.06322 17.38765,58.17674 0.0145,0.0161 0.0284,0.0321 0.0426,0.0474 12.05646,12.94951 30.38981,19.10096 53.70086,19.10096 6.60525,0 13.62562,-0.63043 21.06958,-1.87103 0.0318,0 0.0635,-0.0133 0.0952,-0.0178 7.59461,-1.40642 13.9351,-3.45764 19.07584,-6.41461 l 0.003,0 c 5.53417,-3.16332 9.70574,-7.98645 9.70574,-13.86604 0,-2.87363 -0.88685,-5.13656 -2.15406,-8.10265 -1.24097,-3.38965 -2.98089,-6.48693 -5.19477,-9.19987 -2.33891,-3.03531 -5.81753,-5.47026 -9.82843,-5.47026 -3.0952,0 -4.37738,0.9395 -6.61243,2.07642 -0.003,10e-4 -0.007,7.8e-4 -0.009,0.003 -3.86815,1.74634 -7.85792,3.18392 -11.98001,4.30808 -3.79675,1.03554 -8.53318,1.60802 -14.16911,1.60802 -10.19355,0 -16.65894,-3.02251 -21.32004,-9.23735 -4.66111,-6.21482 -7.46402,-16.42407 -7.46402,-30.93812 0,-14.36761 2.75507,-24.44042 7.29619,-30.5123 4.64693,-6.03826 11.32024,-9.06453 21.88863,-9.06451 5.2961,0 9.70721,0.45118 13.16221,1.25736 3.77006,0.87967 6.88616,1.87061 9.29496,2.90296 1.44152,0.61777 2.58912,1.08862 3.52663,1.44019 0.46876,0.17577 0.87837,0.32161 1.31748,0.45336 0.43911,0.13182 0.62745,0.34063 2.07388,0.34063 4.14079,0 6.96101,-2.41936 9.43023,-5.2173 2.4436,-2.75119 4.50919,-5.81489 6.17658,-9.14967 0.0145,-0.0282 0.0285,-0.0567 0.0426,-0.0852 1.64896,-3.44784 2.72512,-6.44248 2.72512,-9.71825 0,-5.00134 -3.65056,-8.60747 -7.8673,-11.04575 -4.66496,-2.7326 -10.56381,-4.6192 -17.83599,-6.02131 -7.25227,-1.53071 -14.40798,-2.30683 -21.44777,-2.30683 z"
             style="color:#000000;font-style:normal;font-variant:normal;font-weight:bold;font-stretch:normal;font-size:155.82629395px;line-height:125%;font-family:Asap;-inkscape-font-specification:'Asap, Bold';text-indent:0;text-align:start;text-decoration:none;text-decoration-line:none;text-decoration-style:solid;text-decoration-color:#000000;letter-spacing:0px;word-spacing:0px;text-transform:none;direction:ltr;block-progression:tb;writing-mode:lr-tb;baseline-shift:baseline;text-anchor:start;white-space:normal;clip-rule:nonzero;display:inline;overflow:visible;visibility:visible;opacity:1;isolation:auto;mix-blend-mode:normal;color-interpolation:sRGB;color-interpolation-filters:linearRGB;solid-color:#000000;solid-opacity:1;fill:#18265a;fill-opacity:1;fill-rule:nonzero;stroke:none;stroke-width:8.39999962;stroke-linecap:round;stroke-linejoin:round;stroke-miterlimit:4;stroke-dasharray:none;stroke-dashoffset:0;stroke-opacity:1;color-rendering:auto;image-rendering:auto;shape-rendering:auto;text-rendering:auto;enable-background:accumulate" />
        </g>
        <text
           xml:space="preserve"
           style="font-style:normal;font-variant:normal;font-weight:normal;font-stretch:normal;font-size:54.56411743px;line-height:125%;font-family:Asap;-inkscape-font-specification:'Asap, Normal';text-align:center;letter-spacing:0px;word-spacing:0px;writing-mode:lr-tb;text-anchor:middle;fill:#18265a;fill-opacity:1;stroke:none;stroke-width:1px;stroke-linecap:butt;stroke-linejoin:miter;stroke-opacity:1"
           x="360.05017"
           y="964.5285"
           id="text4147-6-1"
           sodipodi:linespacing="125%"
           inkscape:export-xdpi="150"
           inkscape:export-ydpi="150"><tspan
             sodipodi:role="line"
             x="360.05017"
             y="964.5285"
             id="tspan4159-7-38"
             style="font-style:normal;font-variant:normal;font-weight:normal;font-stretch:normal;font-size:54.56411743px;line-height:125%;font-family:'Futura Std';-inkscape-font-specification:'Futura Std, Normal';text-align:center;writing-mode:lr-tb;text-anchor:middle;fill:#18265a;fill-opacity:1">Centro de Capacitación</tspan><tspan
             id="tspan5046"
             sodipodi:role="line"
             x="360.05017"
             y="1032.7336"
             style="font-style:normal;font-variant:normal;font-weight:normal;font-stretch:normal;font-size:54.56411743px;line-height:125%;font-family:'Futura Std';-inkscape-font-specification:'Futura Std, Normal';text-align:center;writing-mode:lr-tb;text-anchor:middle;fill:#18265a;fill-opacity:1">de Antel</tspan></text>
      </g>
      <g
         id="g5498"
         transform="translate(-164.9777,193.20452)">
        <path
           sodipodi:nodetypes="cccc"
           inkscape:connector-curvature="0"
           id="path5049-86"
           d="m 664.79779,616.76572 15.21778,9.12555 -15.1475,47.12732 z"
           style="fill:#f3ae00;fill-opacity:1;fill-rule:evenodd;stroke:#ffffff;stroke-width:0.2;stroke-linecap:butt;stroke-linejoin:miter;stroke-miterlimit:4;stroke-dasharray:none;stroke-opacity:1" />
        <path
           sodipodi:nodetypes="cccc"
           inkscape:connector-curvature="0"
           id="path5049-4-6"
           d="m 680.01557,625.89127 4.35393,28.56784 -19.50143,18.55948 z"
           style="fill:#f3ae00;fill-opacity:1;fill-rule:evenodd;stroke:#ffffff;stroke-width:0.2;stroke-linecap:butt;stroke-linejoin:miter;stroke-miterlimit:4;stroke-dasharray:none;stroke-opacity:1" />
        <path
           sodipodi:nodetypes="cccc"
           inkscape:connector-curvature="0"
           id="path5049-1-1"
           d="m 664.79779,616.76572 29.65875,-25.09337 -14.44097,34.21892 z"
           style="fill:#f3ae00;fill-opacity:1;fill-rule:evenodd;stroke:#ffffff;stroke-width:0.2;stroke-linecap:butt;stroke-linejoin:miter;stroke-miterlimit:4;stroke-dasharray:none;stroke-opacity:1" />
        <path
           sodipodi:nodetypes="cccc"
           inkscape:connector-curvature="0"
           id="path5049-5-0"
           d="m 665.34055,577.88086 29.11599,13.79149 -29.65875,25.09337 z"
           style="fill:#f3ae00;fill-opacity:1;fill-rule:evenodd;stroke:#ffffff;stroke-width:0.2;stroke-linecap:butt;stroke-linejoin:miter;stroke-miterlimit:4;stroke-dasharray:none;stroke-opacity:1" />
        <path
           sodipodi:nodetypes="cccc"
           inkscape:connector-curvature="0"
           id="path5049-50-6"
           d="m 680.01557,625.89127 26.1945,-3.45378 -21.84057,32.02162 z"
           style="fill:#f3ae00;fill-opacity:1;fill-rule:evenodd;stroke:#ffffff;stroke-width:0.2;stroke-linecap:butt;stroke-linejoin:miter;stroke-miterlimit:4;stroke-dasharray:none;stroke-opacity:1" />
        <path
           sodipodi:nodetypes="cccc"
           inkscape:connector-curvature="0"
           id="path5049-7-8"
           d="m 680.01557,625.89127 24.17817,-21.57785 2.01633,18.12407 z"
           style="fill:#f3ae00;fill-opacity:1;fill-rule:evenodd;stroke:#ffffff;stroke-width:0.2;stroke-linecap:butt;stroke-linejoin:miter;stroke-miterlimit:4;stroke-dasharray:none;stroke-opacity:1" />
        <path
           sodipodi:nodetypes="cccc"
           inkscape:connector-curvature="0"
           id="path5049-16-6"
           d="m 680.01557,625.89127 14.44097,-34.21892 9.7372,12.64107 z"
           style="fill:#f3ae00;fill-opacity:1;fill-rule:evenodd;stroke:#ffffff;stroke-width:0.2;stroke-linecap:butt;stroke-linejoin:miter;stroke-miterlimit:4;stroke-dasharray:none;stroke-opacity:1" />
        <path
           sodipodi:nodetypes="cccc"
           inkscape:connector-curvature="0"
           id="path5049-77-0"
           d="m 684.3695,654.45911 21.84057,-32.02162 16.41895,21.69966 z"
           style="fill:#f3ae00;fill-opacity:1;fill-rule:evenodd;stroke:#ffffff;stroke-width:0.2;stroke-linecap:butt;stroke-linejoin:miter;stroke-miterlimit:4;stroke-dasharray:none;stroke-opacity:1" />
        <path
           sodipodi:nodetypes="cccc"
           inkscape:connector-curvature="0"
           id="path5049-74-8"
           d="m 706.21007,622.43749 33.14961,-0.83668 -16.73066,22.53634 z"
           style="fill:#f3ae00;fill-opacity:1;fill-rule:evenodd;stroke:#ffffff;stroke-width:0.2;stroke-linecap:butt;stroke-linejoin:miter;stroke-miterlimit:4;stroke-dasharray:none;stroke-opacity:1" />
        <path
           sodipodi:nodetypes="cccc"
           inkscape:connector-curvature="0"
           id="path5049-9-8"
           d="m 739.35968,621.60081 27.91709,13.69077 -44.64775,8.84557 z"
           style="fill:#f3ae00;fill-opacity:1;fill-rule:evenodd;stroke:#ffffff;stroke-width:0.2;stroke-linecap:butt;stroke-linejoin:miter;stroke-miterlimit:4;stroke-dasharray:none;stroke-opacity:1" />
        <path
           sodipodi:nodetypes="cccc"
           inkscape:connector-curvature="0"
           id="path5049-776-7"
           d="m 691.76983,548.51383 1.38929,13.80524 -27.81857,15.56179 z"
           style="fill:#f3ae00;fill-opacity:1;fill-rule:evenodd;stroke:#ffffff;stroke-width:0.2;stroke-linecap:butt;stroke-linejoin:miter;stroke-miterlimit:4;stroke-dasharray:none;stroke-opacity:1" />
        <path
           sodipodi:nodetypes="cccc"
           inkscape:connector-curvature="0"
           id="path5049-3-5"
           d="m 694.45654,591.67235 -1.29742,-29.35328 -27.81857,15.56179 z"
           style="fill:#f3ae00;fill-opacity:1;fill-rule:evenodd;stroke:#ffffff;stroke-width:0.2;stroke-linecap:butt;stroke-linejoin:miter;stroke-miterlimit:4;stroke-dasharray:none;stroke-opacity:1" />
        <path
           sodipodi:nodetypes="cccc"
           inkscape:connector-curvature="0"
           id="path5049-19-0"
           d="m 691.76983,548.51383 25.05,6.21596 -23.66071,7.58928 z"
           style="fill:#f3ae00;fill-opacity:1;fill-rule:evenodd;stroke:#ffffff;stroke-width:0.2;stroke-linecap:butt;stroke-linejoin:miter;stroke-miterlimit:4;stroke-dasharray:none;stroke-opacity:1" />
        <path
           sodipodi:nodetypes="cccc"
           inkscape:connector-curvature="0"
           id="path5049-8-8"
           d="m 693.15912,562.31907 22.77867,17.76388 -21.48125,11.5894 z"
           style="fill:#f3ae00;fill-opacity:1;fill-rule:evenodd;stroke:#ffffff;stroke-width:0.2;stroke-linecap:butt;stroke-linejoin:miter;stroke-miterlimit:4;stroke-dasharray:none;stroke-opacity:1" />
        <path
           sodipodi:nodetypes="cccc"
           inkscape:connector-curvature="0"
           id="path5049-80-3"
           d="m 693.15912,562.31907 23.66071,-7.58928 -0.88204,25.35316 z"
           style="fill:#f3ae00;fill-opacity:1;fill-rule:evenodd;stroke:#ffffff;stroke-width:0.2;stroke-linecap:butt;stroke-linejoin:miter;stroke-miterlimit:4;stroke-dasharray:none;stroke-opacity:1" />
        <path
           sodipodi:nodetypes="cccc"
           inkscape:connector-curvature="0"
           id="path5049-504-1"
           d="m 691.76983,548.51383 51.94458,-5.20819 -26.89458,11.42415 z"
           style="fill:#f3ae00;fill-opacity:1;fill-rule:evenodd;stroke:#ffffff;stroke-width:0.2;stroke-linecap:butt;stroke-linejoin:miter;stroke-miterlimit:4;stroke-dasharray:none;stroke-opacity:1" />
        <path
           sodipodi:nodetypes="cccc"
           inkscape:connector-curvature="0"
           id="path5049-6-6"
           d="m 716.81983,554.72979 15.80356,16.6372 -16.6856,8.71596 z"
           style="fill:#f3ae00;fill-opacity:1;fill-rule:evenodd;stroke:#ffffff;stroke-width:0.2;stroke-linecap:butt;stroke-linejoin:miter;stroke-miterlimit:4;stroke-dasharray:none;stroke-opacity:1" />
        <path
           sodipodi:nodetypes="cccc"
           inkscape:connector-curvature="0"
           id="path5049-70-4"
           d="m 704.19374,604.31342 11.74405,-24.23047 -21.48125,11.5894 z"
           style="fill:#f3ae00;fill-opacity:1;fill-rule:evenodd;stroke:#ffffff;stroke-width:0.2;stroke-linecap:butt;stroke-linejoin:miter;stroke-miterlimit:4;stroke-dasharray:none;stroke-opacity:1" />
        <path
           sodipodi:nodetypes="cccc"
           inkscape:connector-curvature="0"
           id="path5049-57-3"
           d="m 728.60553,600.83526 -12.66774,-20.75231 -11.74405,24.23047 z"
           style="fill:#f3ae00;fill-opacity:1;fill-rule:evenodd;stroke:#ffffff;stroke-width:0.2;stroke-linecap:butt;stroke-linejoin:miter;stroke-miterlimit:4;stroke-dasharray:none;stroke-opacity:1" />
        <path
           sodipodi:nodetypes="cccc"
           inkscape:connector-curvature="0"
           id="path5049-32-0"
           d="m 704.19374,604.31342 24.41179,-3.47816 -22.39546,21.60223 z"
           style="fill:#f3ae00;fill-opacity:1;fill-rule:evenodd;stroke:#ffffff;stroke-width:0.2;stroke-linecap:butt;stroke-linejoin:miter;stroke-miterlimit:4;stroke-dasharray:none;stroke-opacity:1" />
        <path
           sodipodi:nodetypes="cccc"
           inkscape:connector-curvature="0"
           id="path5049-92-1"
           d="m 728.60553,600.83526 10.75415,20.76555 -33.14961,0.83668 z"
           style="fill:#f3ae00;fill-opacity:1;fill-rule:evenodd;stroke:#ffffff;stroke-width:0.2;stroke-linecap:butt;stroke-linejoin:miter;stroke-miterlimit:4;stroke-dasharray:none;stroke-opacity:1" />
        <path
           sodipodi:nodetypes="cccc"
           inkscape:connector-curvature="0"
           id="path5049-71-0"
           d="m 739.35968,621.60081 11.74586,-21.05043 16.17123,34.7412 z"
           style="fill:#f3ae00;fill-opacity:1;fill-rule:evenodd;stroke:#ffffff;stroke-width:0.2;stroke-linecap:butt;stroke-linejoin:miter;stroke-miterlimit:4;stroke-dasharray:none;stroke-opacity:1" />
        <path
           sodipodi:nodetypes="cccc"
           inkscape:connector-curvature="0"
           id="path5049-48-6"
           d="m 732.62339,571.36699 -16.6856,8.71596 12.66774,20.75231 z"
           style="fill:#f3ae00;fill-opacity:1;fill-rule:evenodd;stroke:#ffffff;stroke-width:0.2;stroke-linecap:butt;stroke-linejoin:miter;stroke-miterlimit:4;stroke-dasharray:none;stroke-opacity:1" />
        <path
           sodipodi:nodetypes="cccc"
           inkscape:connector-curvature="0"
           id="path5049-2-4"
           d="m 732.62339,571.36699 25.16775,15.52511 -29.18561,13.94316 z"
           style="fill:#f3ae00;fill-opacity:1;fill-rule:evenodd;stroke:#ffffff;stroke-width:0.2;stroke-linecap:butt;stroke-linejoin:miter;stroke-miterlimit:4;stroke-dasharray:none;stroke-opacity:1" />
        <path
           sodipodi:nodetypes="cccc"
           inkscape:connector-curvature="0"
           id="path5049-0-3"
           d="m 728.60553,600.83526 22.50001,-0.28488 -11.74586,21.05043 z"
           style="fill:#f3ae00;fill-opacity:1;fill-rule:evenodd;stroke:#ffffff;stroke-width:0.2;stroke-linecap:butt;stroke-linejoin:miter;stroke-miterlimit:4;stroke-dasharray:none;stroke-opacity:1" />
        <path
           sodipodi:nodetypes="cccc"
           inkscape:connector-curvature="0"
           id="path5049-575-0"
           d="m 728.60553,600.83526 29.18561,-13.94316 -6.6856,13.65828 z"
           style="fill:#f3ae00;fill-opacity:1;fill-rule:evenodd;stroke:#ffffff;stroke-width:0.2;stroke-linecap:butt;stroke-linejoin:miter;stroke-miterlimit:4;stroke-dasharray:none;stroke-opacity:1" />
        <path
           sodipodi:nodetypes="cccc"
           inkscape:connector-curvature="0"
           id="path5049-76-8"
           d="m 732.62339,571.36699 23.46243,-12.32586 1.70532,27.85097 z"
           style="fill:#f3ae00;fill-opacity:1;fill-rule:evenodd;stroke:#ffffff;stroke-width:0.2;stroke-linecap:butt;stroke-linejoin:miter;stroke-miterlimit:4;stroke-dasharray:none;stroke-opacity:1" />
        <path
           sodipodi:nodetypes="cccc"
           inkscape:connector-curvature="0"
           id="path5049-26-1"
           d="m 716.81983,554.72979 26.89458,-11.42415 -11.09102,28.06135 z"
           style="fill:#f3ae00;fill-opacity:1;fill-rule:evenodd;stroke:#ffffff;stroke-width:0.2;stroke-linecap:butt;stroke-linejoin:miter;stroke-miterlimit:4;stroke-dasharray:none;stroke-opacity:1" />
        <path
           sodipodi:nodetypes="cccc"
           inkscape:connector-curvature="0"
           id="path5049-07-0"
           d="m 743.71441,543.30564 12.37141,15.73549 -23.46243,12.32586 z"
           style="fill:#f3ae00;fill-opacity:1;fill-rule:evenodd;stroke:#ffffff;stroke-width:0.2;stroke-linecap:butt;stroke-linejoin:miter;stroke-miterlimit:4;stroke-dasharray:none;stroke-opacity:1" />
        <path
           sodipodi:nodetypes="cccc"
           inkscape:connector-curvature="0"
           id="path5049-265-1"
           d="m 751.10554,600.55038 32.53917,-1.96827 -16.36794,36.70947 z"
           style="fill:#f3ae00;fill-opacity:1;fill-rule:evenodd;stroke:#ffffff;stroke-width:0.2;stroke-linecap:butt;stroke-linejoin:miter;stroke-miterlimit:4;stroke-dasharray:none;stroke-opacity:1" />
        <path
           sodipodi:nodetypes="cccc"
           inkscape:connector-curvature="0"
           id="path5049-265-8-1"
           d="m 767.27677,635.29158 30.77335,-17.50862 -14.40541,-19.20085 z"
           style="fill:#f3ae00;fill-opacity:1;fill-rule:evenodd;stroke:#ffffff;stroke-width:0.2;stroke-linecap:butt;stroke-linejoin:miter;stroke-miterlimit:4;stroke-dasharray:none;stroke-opacity:1" />
        <path
           sodipodi:nodetypes="cccc"
           inkscape:connector-curvature="0"
           id="path5049-265-2-89"
           d="m 751.10554,600.55038 6.6856,-13.65828 25.85357,11.69001 z"
           style="fill:#f3ae00;fill-opacity:1;fill-rule:evenodd;stroke:#ffffff;stroke-width:0.2;stroke-linecap:butt;stroke-linejoin:miter;stroke-miterlimit:4;stroke-dasharray:none;stroke-opacity:1" />
        <path
           sodipodi:nodetypes="cccc"
           inkscape:connector-curvature="0"
           id="path5049-265-2-8-3"
           d="m 757.79114,586.8921 11.4394,-19.42363 15.00536,10.86281 z"
           style="fill:#f3ae00;fill-opacity:1;fill-rule:evenodd;stroke:#ffffff;stroke-width:0.2;stroke-linecap:butt;stroke-linejoin:miter;stroke-miterlimit:4;stroke-dasharray:none;stroke-opacity:1" />
        <path
           sodipodi:nodetypes="cccc"
           inkscape:connector-curvature="0"
           id="path5049-265-2-8-2-851"
           d="m 783.64471,598.58211 0.59119,-20.25083 21.96976,2.36607 z"
           style="fill:#f3ae00;fill-opacity:1;fill-rule:evenodd;stroke:#ffffff;stroke-width:0.2;stroke-linecap:butt;stroke-linejoin:miter;stroke-miterlimit:4;stroke-dasharray:none;stroke-opacity:1" />
        <path
           sodipodi:nodetypes="cccc"
           inkscape:connector-curvature="0"
           id="path5049-265-2-8-2-8-6"
           d="m 797.17699,559.25022 -12.94109,19.08106 21.96976,2.36607 z"
           style="fill:#f3ae00;fill-opacity:1;fill-rule:evenodd;stroke:#ffffff;stroke-width:0.2;stroke-linecap:butt;stroke-linejoin:miter;stroke-miterlimit:4;stroke-dasharray:none;stroke-opacity:1" />
        <path
           sodipodi:nodetypes="cccc"
           inkscape:connector-curvature="0"
           id="path5049-265-2-8-2-3-7"
           d="m 783.64471,598.58211 14.40541,19.20085 8.15554,-37.08561 z"
           style="fill:#f3ae00;fill-opacity:1;fill-rule:evenodd;stroke:#ffffff;stroke-width:0.2;stroke-linecap:butt;stroke-linejoin:miter;stroke-miterlimit:4;stroke-dasharray:none;stroke-opacity:1" />
        <path
           sodipodi:nodetypes="cccc"
           inkscape:connector-curvature="0"
           id="path5049-265-2-8-2-0-9"
           d="m 757.79114,586.8921 25.85357,11.69001 0.59119,-20.25083 z"
           style="fill:#f3ae00;fill-opacity:1;fill-rule:evenodd;stroke:#ffffff;stroke-width:0.2;stroke-linecap:butt;stroke-linejoin:miter;stroke-miterlimit:4;stroke-dasharray:none;stroke-opacity:1" />
        <path
           sodipodi:nodetypes="cccc"
           inkscape:connector-curvature="0"
           id="path5049-265-2-8-2-6-7"
           d="m 757.79114,586.8921 -1.70532,-27.85097 13.14472,8.42734 z"
           style="fill:#f3ae00;fill-opacity:1;fill-rule:evenodd;stroke:#ffffff;stroke-width:0.2;stroke-linecap:butt;stroke-linejoin:miter;stroke-miterlimit:4;stroke-dasharray:none;stroke-opacity:1" />
        <path
           sodipodi:nodetypes="cccc"
           inkscape:connector-curvature="0"
           id="path5049-265-2-8-2-5-6"
           d="m 769.23054,567.46847 15.00536,10.86281 -6.93047,-13.54137 z"
           style="fill:#f3ae00;fill-opacity:1;fill-rule:evenodd;stroke:#ffffff;stroke-width:0.2;stroke-linecap:butt;stroke-linejoin:miter;stroke-miterlimit:4;stroke-dasharray:none;stroke-opacity:1" />
        <path
           sodipodi:nodetypes="cccc"
           inkscape:connector-curvature="0"
           id="path5049-265-2-8-2-2-6"
           d="m 784.2359,578.33128 -6.93047,-13.54137 19.87156,-5.53969 z"
           style="fill:#f3ae00;fill-opacity:1;fill-rule:evenodd;stroke:#ffffff;stroke-width:0.2;stroke-linecap:butt;stroke-linejoin:miter;stroke-miterlimit:4;stroke-dasharray:none;stroke-opacity:1" />
        <path
           sodipodi:nodetypes="cccc"
           inkscape:connector-curvature="0"
           id="path5049-265-2-8-2-85-7"
           d="m 777.30543,564.78991 -10.48573,-19.31975 30.35729,13.78006 z"
           style="fill:#f3ae00;fill-opacity:1;fill-rule:evenodd;stroke:#ffffff;stroke-width:0.2;stroke-linecap:butt;stroke-linejoin:miter;stroke-miterlimit:4;stroke-dasharray:none;stroke-opacity:1" />
        <path
           sodipodi:nodetypes="cccc"
           inkscape:connector-curvature="0"
           id="path5049-265-2-8-2-9-4"
           d="m 769.23054,567.46847 -2.41084,-21.99831 10.48573,19.31975 z"
           style="fill:#f3ae00;fill-opacity:1;fill-rule:evenodd;stroke:#ffffff;stroke-width:0.2;stroke-linecap:butt;stroke-linejoin:miter;stroke-miterlimit:4;stroke-dasharray:none;stroke-opacity:1" />
        <path
           sodipodi:nodetypes="cccc"
           inkscape:connector-curvature="0"
           id="path5049-265-2-8-2-93-1"
           d="m 769.23054,567.46847 -13.14472,-8.42734 10.73388,-13.57097 z"
           style="fill:#f3ae00;fill-opacity:1;fill-rule:evenodd;stroke:#ffffff;stroke-width:0.2;stroke-linecap:butt;stroke-linejoin:miter;stroke-miterlimit:4;stroke-dasharray:none;stroke-opacity:1" />
        <path
           sodipodi:nodetypes="cccc"
           inkscape:connector-curvature="0"
           id="path5049-265-2-8-2-86-0"
           d="m 743.71441,543.30564 12.37141,15.73549 10.73388,-13.57097 z"
           style="fill:#f3ae00;fill-opacity:1;fill-rule:evenodd;stroke:#ffffff;stroke-width:0.2;stroke-linecap:butt;stroke-linejoin:miter;stroke-miterlimit:4;stroke-dasharray:none;stroke-opacity:1" />
      </g>
    </g>
  </g>
</svg>
